#!OML:ASF E:\motion texture\Top Level 1\Subject 1\Session 1\male.ASF
:FULLY-SPECIFIED
:DEGREES
305
root -12.7727 18.104 3.74503 714.177 -86.1927 -718.254
lowerback 7.48252 -5.41848 -3.19496
upperback -1.4692 -7.46176 1.49907
thorax -5.10073 -3.57391 4.18143
lowerneck -20.3058 -1.31815 -3.77636
upperneck 18.5138 -1.91042 5.12793
head 9.26395 -0.607734 2.12831
rclavicle 9.69075e-016 1.11319e-014
rhumerus -62.7879 3.16636 -65.6371
rradius 45.1307
rwrist 3.13373
rhand -9.12263 -7.07528
rfingers 7.12502
rthumb 16.8284 -36.3661
lclavicle 9.69075e-016 1.11319e-014
lhumerus 0.0457642 -28.094 91.3104
lradius 69.7535
lwrist 2.7856
lhand -9.93083 2.88327
lfingers 7.12502
lthumb 16.0503 32.2385
rfemur -82.2991 -9.20348 21.8953
rtibia 64.4488
rfoot -175.326 0.678974
rtoes 20.1906
lfemur 2.22175 -3.94121 -25.8367
ltibia 18.2829
lfoot 708.194 -1.17517
ltoes 2.27342
306
root -12.9162 18.1161 3.72877 716.572 -86.0406 -720.788
lowerback 7.65496 -5.49394 -3.09603
upperback -1.41618 -7.55384 1.58325
thorax -5.13525 -3.6211 4.23969
lowerneck -20.3416 -1.29999 -3.75886
upperneck 18.4854 -1.88235 5.10662
head 9.25866 -0.594958 2.12168
rclavicle 5.09386e-014 -7.15625e-015
rhumerus -63.2744 3.00233 -65.1133
rradius 45.3267
rwrist 3.06357
rhand -9.14481 -7.01087
rfingers 7.12502
rthumb 16.807 -36.3035
lclavicle 5.09386e-014 -7.15625e-015
lhumerus 0.734299 -28.1263 90.8868
lradius 69.9146
lwrist 2.76658
lhand -9.8588 2.82835
lfingers 7.12502
lthumb 16.1196 32.178
rfemur -83.8462 -9.02503 22.413
rtibia 65.4098
rfoot -175.246 0.301129
rtoes 19.7443
lfemur 3.07413 -4.03134 -25.6324
ltibia 17.9114
lfoot 708.102 -1.11107
ltoes 2.26075
307
root -13.0589 18.1248 3.71227 718.658 -85.9179 -722.99
lowerback 7.80404 -5.55234 -3.00918
upperback -1.35925 -7.62363 1.66157
thorax -5.15368 -3.65761 4.29361
lowerneck -20.4045 -1.29038 -3.75304
upperneck 18.4651 -1.86722 5.10798
head 9.26209 -0.5861 2.12326
rclavicle -2.11954e-014 8.34896e-015
rhumerus -63.6756 2.83572 -64.6658
rradius 45.4759
rwrist 3.06378
rhand -9.15787 -6.96502
rfingers 7.12502
rthumb 16.7945 -36.2587
lclavicle -2.11954e-014 8.34896e-015
lhumerus 1.34447 -28.1276 90.5053
lradius 70.0453
lwrist 2.73154
lhand -9.79707 2.77072
lfingers 7.12502
lthumb 16.1791 32.1155
rfemur -85.1986 -8.83262 22.9132
rtibia 66.4595
rfoot -175.196 0.123225
rtoes 19.3479
lfemur 3.84793 -4.05748 -25.4276
ltibia 17.6324
lfoot 707.997 -1.06905
ltoes 2.28506
308
root -13.2007 18.13 3.69599 720.202 -85.8146 -724.618
lowerback 7.93414 -5.59666 -2.94882
upperback -1.30954 -7.67707 1.72849
thorax -5.16855 -3.68541 4.34706
lowerneck -20.4772 -1.28585 -3.75951
upperneck 18.447 -1.86082 5.13361
head 9.26884 -0.579332 2.13416
rclavicle -4.32357e-014 -3.97569e-015
rhumerus -64.0038 2.6734 -64.2976
rradius 45.5839
rwrist 3.10265
rhand -9.17706 -6.92434
rfingers 7.12502
rthumb 16.776 -36.2196
lclavicle -4.32357e-014 -3.97569e-015
lhumerus 1.86337 -28.1072 90.172
lradius 70.1545
lwrist 2.68256
lhand -9.72698 2.69868
lfingers 7.12502
lthumb 16.2465 32.038
rfemur -86.3709 -8.65446 23.3746
rtibia 67.5756
rfoot -175.159 0.174978
rtoes 19.022
lfemur 4.53532 -4.03707 -25.2601
ltibia 17.4441
lfoot 707.881 -1.03098
ltoes 2.30116
309
root -13.3418 18.1318 3.67991 721.297 -85.7178 -725.764
lowerback 8.04005 -5.63295 -2.91002
upperback -1.26543 -7.72174 1.78395
thorax -5.1752 -3.70856 4.39716
lowerneck -20.5555 -1.28693 -3.76386
upperneck 18.4261 -1.863 5.16149
head 9.27604 -0.576066 2.1443
rclavicle -3.27249e-014 -9.54166e-015
rhumerus -64.2538 2.51705 -64.0162
rradius 45.6503
rwrist 3.14308
rhand -9.20597 -6.88696
rfingers 7.12502
rthumb 16.7482 -36.1845
lclavicle -3.27249e-014 -9.54166e-015
lhumerus 2.28095 -28.0687 89.8868
lradius 70.257
lwrist 2.60892
lhand -9.68085 2.62388
lfingers 7.12502
lthumb 16.291 31.9595
rfemur -87.3643 -8.51056 23.8003
rtibia 68.7539
rfoot -175.106 0.452757
rtoes 18.7804
lfemur 5.14218 -3.99644 -25.1329
ltibia 17.3352
lfoot 707.761 -0.981827
ltoes 2.27886
310
root -13.4818 18.1307 3.66449 721.825 -85.6141 -726.307
lowerback 8.12416 -5.66729 -2.8972
upperback -1.23207 -7.76648 1.82465
thorax -5.17947 -3.73104 4.44442
lowerneck -20.6401 -1.29048 -3.77542
upperneck 18.4083 -1.86989 5.20452
head 9.28595 -0.573729 2.16031
rclavicle 4.51241e-014 8.74653e-015
rhumerus -64.4265 2.36701 -63.8214
rradius 45.6805
rwrist 3.15498
rhand -9.23815 -6.87606
rfingers 7.12502
rthumb 16.7172 -36.1763
lclavicle 4.51241e-014 8.74653e-015
lhumerus 2.60106 -28.0147 89.6467
lradius 70.351
lwrist 2.51842
lhand -9.68756 2.57954
lfingers 7.12502
lthumb 16.2845 31.9157
rfemur -88.1857 -8.4239 24.1729
rtibia 69.9912
rfoot -174.993 0.887773
rtoes 18.6165
lfemur 5.66449 -3.95755 -25.0664
ltibia 17.3038
lfoot 707.636 -0.912935
ltoes 2.17484
311
root -13.6207 18.1272 3.64985 721.794 -85.4976 -726.25
lowerback 8.18021 -5.70141 -2.90746
upperback -1.20826 -7.81336 1.84625
thorax -5.17738 -3.75415 4.48205
lowerneck -20.7232 -1.29842 -3.78031
upperneck 18.3877 -1.88506 5.24817
head 9.29497 -0.574738 2.17424
rclavicle 3.43649e-014 -2.5842e-014
rhumerus -64.5222 2.21496 -63.7155
rradius 45.6738
rwrist 3.12796
rhand -9.27788 -6.887
rfingers 7.12502
rthumb 16.6789 -36.1904
lclavicle 3.43649e-014 -2.5842e-014
lhumerus 2.81929 -27.9518 89.4493
lradius 70.4416
lwrist 2.41397
lhand -9.73543 2.57274
lfingers 7.12502
lthumb 16.2384 31.9127
rfemur -88.8358 -8.40193 24.4819
rtibia 71.2883
rfoot -174.78 1.40634
rtoes 18.5575
lfemur 6.11071 -3.94115 -25.0661
ltibia 17.3336
lfoot 707.508 -0.817615
ltoes 1.96293
312
root -13.7585 18.1217 3.63606 721.207 -85.3672 -725.596
lowerback 8.21283 -5.73406 -2.94902
upperback -1.19986 -7.8615 1.85392
thorax -5.17596 -3.7768 4.52075
lowerneck -20.7942 -1.31067 -3.78945
upperneck 18.358 -1.90538 5.29417
head 9.29901 -0.578379 2.18883
rclavicle 4.04527e-014 -1.55052e-014
rhumerus -64.5472 2.06153 -63.6838
rradius 45.6371
rwrist 3.06655
rhand -9.32382 -6.91254
rfingers 7.12502
rthumb 16.6347 -36.2197
lclavicle 4.04527e-014 -1.55052e-014
lhumerus 2.93488 -27.8789 89.3077
lradius 70.5224
lwrist 2.3011
lhand -9.81427 2.59917
lfingers 7.12502
lthumb 16.1625 31.9453
rfemur -89.3175 -8.44367 24.7191
rtibia 72.6471
rfoot -174.428 1.92665
rtoes 18.6301
lfemur 6.48433 -3.9556 -25.1332
ltibia 17.4145
lfoot 707.374 -0.704284
ltoes 1.64797
313
root -13.8954 18.1148 3.62319 720.068 -85.2295 -724.349
lowerback 8.21619 -5.76289 -3.02857
upperback -1.20562 -7.90826 1.84863
thorax -5.16981 -3.79772 4.56398
lowerneck -20.8493 -1.32854 -3.7967
upperneck 18.3166 -1.9311 5.32791
head 9.29624 -0.586027 2.19788
rclavicle -1.31198e-014 -7.15625e-015
rhumerus -64.4986 1.90383 -63.7179
rradius 45.5726
rwrist 2.98718
rhand -9.37892 -6.9682
rfingers 7.12502
rthumb 16.5817 -36.2798
lclavicle -1.31198e-014 -7.15625e-015
lhumerus 2.95622 -27.791 89.2256
lradius 70.5846
lwrist 2.17926
lhand -9.88142 2.65054
lfingers 7.12502
lthumb 16.0978 32.0019
rfemur -89.634 -8.5384 24.8745
rtibia 74.0608
rfoot -173.924 2.38497
rtoes 18.8039
lfemur 6.79446 -4.00398 -25.2691
ltibia 17.5309
lfoot 707.231 -0.583605
ltoes 1.21409
314
root -14.0314 18.1069 3.61109 718.507 -85.0931 -722.64
lowerback 8.19216 -5.78284 -3.14333
upperback -1.22385 -7.94644 1.83453
thorax -5.15862 -3.81342 4.61384
lowerneck -20.8902 -1.35244 -3.80431
upperneck 18.2572 -1.96137 5.34845
head 9.28477 -0.597501 2.20149
rclavicle 8.89064e-014 1.07344e-014
rhumerus -64.378 1.73909 -63.81
rradius 45.4912
rwrist 2.91074
rhand -9.44087 -7.02336
rfingers 7.12502
rthumb 16.522 -36.3399
lclavicle 8.89064e-014 1.07344e-014
lhumerus 2.89231 -27.6948 89.2006
lradius 70.6248
lwrist 2.0731
lhand -9.92031 2.7078
lfingers 7.12502
lthumb 16.0604 32.0622
rfemur -89.7801 -8.66607 24.9487
rtibia 75.5341
rfoot -173.278 2.72653
rtoes 19.051
lfemur 7.05283 -4.08148 -25.4599
ltibia 17.6646
lfoot 707.081 -0.466348
ltoes 0.671674
315
root -14.1669 18.0982 3.59945 716.761 -84.9699 -720.708
lowerback 8.14602 -5.79014 -3.2825
upperback -1.25936 -7.96969 1.82014
thorax -5.15129 -3.8206 4.67371
lowerneck -20.9114 -1.38271 -3.81655
upperneck 18.1833 -1.9958 5.35609
head 9.26486 -0.613002 2.20057
rclavicle -8.0806e-014 3.57812e-015
rhumerus -64.1963 1.57088 -63.949
rradius 45.3985
rwrist 2.86338
rhand -9.50509 -7.07784
rfingers 7.12502
rthumb 16.4602 -36.3995
lclavicle -8.0806e-014 3.57812e-015
lhumerus 2.73501 -27.5902 89.2449
lradius 70.6372
lwrist 1.98439
lhand -9.94839 2.78504
lfingers 7.12502
lthumb 16.0333 32.1416
rfemur -89.7546 -8.80209 24.957
rtibia 77.0668
rfoot -172.514 2.89727
rtoes 19.3054
lfemur 7.27294 -4.18982 -25.6798
ltibia 17.795
lfoot 706.926 -0.359192
ltoes 0.0169322
